<?xml version="1.0" standalone="no"?>
<!DOCTYPE svg PUBLIC "-//W3C//DTD SVG 20010904//EN"
 "http://www.w3.org/TR/2001/REC-SVG-20010904/DTD/svg10.dtd">
<svg version="1.0" xmlns="http://www.w3.org/2000/svg"
 width="573.000000pt" height="573.000000pt" viewBox="0 0 573.000000 573.000000"
 preserveAspectRatio="xMidYMid meet">
<metadata>
Created by potrace 1.14, written by Peter Selinger 2001-2017
</metadata>
<g transform="translate(0.000000,573.000000) scale(0.100000,-0.100000)"
fill="#000000" stroke="none">
<path d="M1218 5199 c-78 -12 -140 -52 -200 -131 -13 -16 -28 -35 -33 -41 -11
-13 -76 -96 -180 -232 -38 -49 -75 -97 -82 -105 -13 -16 -121 -155 -163 -209
-14 -18 -35 -45 -46 -59 -159 -200 -390 -505 -401 -531 -29 -68 -28 -70 242
-421 52 -69 101 -132 108 -140 7 -8 26 -33 42 -55 16 -22 32 -42 35 -45 3 -3
35 -43 70 -90 36 -46 71 -91 77 -100 30 -36 420 -542 471 -610 31 -41 59 -77
62 -80 3 -3 24 -30 48 -60 23 -30 45 -59 50 -65 16 -20 518 -670 572 -740 152
-198 285 -371 295 -381 5 -7 57 -73 115 -149 58 -75 125 -163 150 -194 25 -32
56 -73 70 -91 131 -174 243 -309 271 -328 28 -19 44 -23 85 -20 58 5 86 23
137 89 122 159 484 629 501 650 12 14 28 36 36 49 8 12 22 30 31 39 8 9 29 34
45 56 16 22 70 92 119 156 50 64 101 131 115 149 97 127 212 277 223 290 6 8
28 35 47 60 19 25 40 52 47 60 26 32 239 310 258 336 11 15 25 32 30 38 6 6
44 56 85 111 41 55 77 102 80 105 3 3 21 25 40 50 19 25 40 52 47 60 11 14
209 271 357 464 34 43 77 100 96 126 19 26 42 54 50 63 30 33 40 46 40 56 0 5
4 11 8 13 4 2 37 41 72 88 36 47 67 87 70 90 14 13 198 258 208 277 18 33 14
74 -9 113 -12 19 -24 37 -28 40 -4 3 -54 66 -111 140 -58 74 -110 142 -117
150 -46 58 -206 262 -423 544 -299 385 -268 347 -305 372 -67 47 -17 45 -1733
47 -896 1 -1649 -1 -1674 -4z"/>
</g>
</svg>
